<svg xmlns="http://www.w3.org/2000/svg" width="13" height="16" viewBox="0 0 13 16">
    <path fill="#C9C9E8" fill-rule="evenodd" d="M9.818 11.636c-.105.352-.34.641-.663.816a1.364 1.364 0 0 1-1.047.109l-3.521-1.05.784-2.633 3.522 1.049c.726.216 1.141.983.925 1.709m1.188-5.399a1.377 1.377 0 0 1-1.6 1.971h-.001L5.883 7.16l.784-2.635 3.522 1.05c.352.104.642.34.817.662m1.576-.853a3.146 3.146 0 0 0-1.881-1.528l-.466-.138.652-2.19-1.674-.5-.652 2.191-1.429-.425.653-2.19-.401-.12L5.759 0 5.13 2.111l-1.979-.59-.559 1.877 1.98.59-2.034 6.828-1.98-.59L0 12.102l1.98.59-.531 1.782.4.119 1.625.484.554-1.861 1.433.426-.555 1.861L6.573 16l.554-1.861.47.14a3.15 3.15 0 0 0 2.41-.25 3.146 3.146 0 0 0 1.529-1.882 3.156 3.156 0 0 0-.276-2.45 3.157 3.157 0 0 0 1.572-1.902 3.146 3.146 0 0 0-.25-2.41"/>
</svg>
